# xmcd
#
# Track frame offsets: 
#        150
#        11501
#        27385
#        40794
#        67368
#        84169
#        101080
#        124471
#        138848
#        153096
#        166240
#        185685
#        203966
#        217565
#        230591
#        249923
#        271432
#        284686
#
# Disc length: 3962 seconds
#
# Revision: 0
# Processed by: cddbd v1.5.2PL0 Copyright (c) Steve Scherf et al.
# Submitted via: ExactAudioCopy v1.3
#
DISCID=fd0f7812
DTITLE=_Various Artists - Brel - rakt in i hjärtat
DYEAR=2007
DGENRE=Folk
TTITLE0=Matilda
TTITLE1=Fyllot
TTITLE2=Borgare
TTITLE3=Såna där
TTITLE4=Jackie
TTITLE5=Jef
TTITLE6=Du får inte gå
TTITLE7=Amsterdam
TTITLE8=Flickorna
TTITLE9=Tjejer och hundar
TTITLE10=Marieke
TTITLE11=Min sista måltid
TTITLE12=Han har ihop det med min fru
TTITLE13=Borås
TTITLE14=De gamla
TTITLE15=Fernand
TTITLE16=Begravningstango
TTITLE17=Följ med gå i led
EXTD=
EXTT0=
EXTT1=
EXTT2=
EXTT3=
EXTT4=
EXTT5=
EXTT6=
EXTT7=
EXTT8=
EXTT9=
EXTT10=
EXTT11=
EXTT12=
EXTT13=
EXTT14=
EXTT15=
EXTT16=
EXTT17=
PLAYORDER=
